PathFileType	4	(X/Y/Z)	C:/Users/opensim2020/Desktop/walking_exp_matlab/subject03_walking06_straight_01.trc																																																																																																																																		
DataRate	CameraRate	NumFrames	NumMarkers	Units	OrigDataRate	OrigDataStartFrame	OrigNumFrames																																																																																																																														
100	100	7	44	mm	100	533	362																																																																																																																														
Frame#	Time	LFHD			RFHD			LBHD			RBHD			C7			T10			CLAV			STRN			RBAK			LSHO			LUPA			LELB			LFRM			LWRA			LWRB			LFIN			RSHO			RUPA			RELB			RFRM			RWRA			RWRB			RFIN			LASI			RASI			LPSI			RPSI			LTHI			LKNE			LTIB			LANK			LHEE			LTOE			RTHI			RKNE			RTIB			RANK			RHEE			RTOE			*39			*40			*41			*42			*43		
		X1	Y1	Z1	X2	Y2	Z2	X3	Y3	Z3	X4	Y4	Z4	X5	Y5	Z5	X6	Y6	Z6	X7	Y7	Z7	X8	Y8	Z8	X9	Y9	Z9	X10	Y10	Z10	X11	Y11	Z11	X12	Y12	Z12	X13	Y13	Z13	X14	Y14	Z14	X15	Y15	Z15	X16	Y16	Z16	X17	Y17	Z17	X18	Y18	Z18	X19	Y19	Z19	X20	Y20	Z20	X21	Y21	Z21	X22	Y22	Z22	X23	Y23	Z23	X24	Y24	Z24	X25	Y25	Z25	X26	Y26	Z26	X27	Y27	Z27	X28	Y28	Z28	X29	Y29	Z29	X30	Y30	Z30	X31	Y31	Z31	X32	Y32	Z32	X33	Y33	Z33	X34	Y34	Z34	X35	Y35	Z35	X36	Y36	Z36	X37	Y37	Z37	X38	Y38	Z38	X39	Y39	Z39	X40	Y40	Z40	X41	Y41	Z41	X42	Y42	Z42	X43	Y43	Z43	X44	Y44	Z44
																																																																																																																																					
91	0.9	-860.21478	1621.02051	1384.08081	-878.71112	1615.97168	1515.22473	-992.0368	1592.94482	1367.3844	-1006.16235	1587.42432	1497.55554	-1046.15723	1429.17517	1418.66077	-1098.04163	1117.22742	1423.46997	-929.07684	1345.24292	1418.92554	-893.27753	1178.48511	1414.1947	-1109.36475	1255.18994	1513.979	-974.08887	1386.17883	1263.8678	-983.29224	1189.55884	1193.71826	-969.80157	1067.0304	1182.21948	-935.0202	941.06348	1182.89404	-908.35236	824.79132	1213.12964	-930.82141	828.56427	1162.26563	-909.02795	747.04022	1171.69202	-976.35498	1371.97644	1577.85974	-973.41296	1151.70813	1654.82007	-954.24225	1040.13049	1668.19177	-933.19208	905.03949	1670.06726	-901.99109	811.40973	1632.40002	-929.30316	804.83917	1678.64832	-904.68396	734.90753	1666.30847	-946.62866	939.76337	1309.74243	-939.88232	946.42102	1546.22009	-1106.0033	969.86896	1360.86951	-1099.22742	986.35754	1509.41821	-970.63397	639.84167	1258.06519	-938.5827	463.15469	1278.28821	-1085.08911	331.48059	1285.35986	-1228.44507	183.04027	1330.06299	-1279.85449	180.15726	1372.1825	-1140.15186	64.07536	1340.69788	-1002.57086	654.66052	1582.93188	-988.7027	474.98325	1542.9375	-1029.84314	289.44464	1543.03491	-1047.07056	74.42316	1489.08862	-1089.32703	41.63841	1437.67334	-903.77942	37.62621	1471.96545	NaN	NaN	NaN	NaN	NaN	NaN	NaN	NaN	NaN	NaN	NaN	NaN	NaN	NaN	NaN
92	0.91	-852.49414	1620.96851	1383.92285	-870.70667	1616.23254	1515.26721	-985.20422	1593.27039	1367.58655	-998.11865	1587.74146	1497.79443	-1038.44446	1429.34595	1419.37842	-1090.36536	1117.41394	1424.21582	-921.50702	1345.34619	1419.09961	-885.68231	1178.60901	1414.5929	-1101.43225	1255.56226	1514.94177	-967.12042	1386.33679	1264.12195	-978.59503	1189.55737	1194.323	-966.50311	1066.91882	1182.77625	-933.07019	940.67621	1183.20972	-907.62561	823.84778	1213.04163	-930.52515	828.24274	1162.3418	-909.41315	746.5238	1171.24622	-968.01141	1372.40161	1578.24683	-962.08783	1152.18689	1655.3092	-942.08282	1041.00879	1668.41907	-919.45776	906.16107	1670.44373	-887.74817	812.7193	1632.6781	-914.30573	806.08752	1679.29102	-888.72485	736.49506	1667.06042	-938.55463	940.60901	1310.48035	-932.32025	946.06708	1546.8678	-1097.97705	970.35938	1361.11755	-1091.45313	986.41644	1509.86816	-956.71423	640.64215	1259.3075	-921.4212	464.96402	1280.26953	-1064.47729	329.50266	1286.53662	-1204.99255	177.91454	1329.92957	-1257.01025	173.23183	1371.40259	-1112.77307	62.85328	1342.33899	-996.31628	654.51288	1583.12366	-984.19977	474.7283	1543.06409	-1027.27502	289.51077	1543.02087	-1046.84985	74.62969	1489.00842	-1089.23889	42.05046	1437.6228	-903.62445	37.55898	1471.94788	NaN	NaN	NaN	NaN	NaN	NaN	NaN	NaN	NaN	NaN	NaN	NaN	NaN	NaN	NaN
93	0.92	-844.69019	1620.93542	1383.72632	-862.85352	1616.32422	1515.31165	-977.67426	1593.39587	1367.73633	-990.10297	1588.09802	1498.05298	-1030.60547	1429.3916	1420.00977	-1082.67786	1117.5105	1424.9353	-913.7608	1345.55542	1419.36987	-878.13708	1178.76038	1414.84802	-1093.51392	1255.92004	1515.90039	-959.9209	1386.46606	1264.36096	-973.8075	1189.55322	1194.81592	-963.2851	1066.80518	1183.23242	-930.99731	940.37201	1183.45313	-906.60028	823.22192	1213.12769	-930.1355	827.85992	1162.54565	-909.77502	745.91199	1170.94678	-959.87122	1372.75269	1578.56165	-951.85632	1152.80872	1655.74426	-930.36475	1041.88647	1668.60364	-905.76263	907.33734	1670.76086	-873.61591	813.9502	1632.85571	-899.41443	807.41174	1679.82983	-873.54663	737.97485	1667.46277	-930.55713	941.27271	1311.29248	-924.60962	945.76685	1547.43445	-1090.0896	970.86633	1361.36511	-1083.6947	986.4599	1510.25452	-943.75269	642.17224	1260.33618	-904.64941	467.00574	1282.44934	-1043.9137	327.50137	1287.51892	-1180.63416	171.89519	1329.95959	-1233.43909	165.68245	1370.59619	-1084.56299	60.81225	1344.08826	-990.16559	654.44373	1583.16443	-979.8064	474.48129	1543.15198	-1024.77856	289.62823	1542.90063	-1046.61243	74.95602	1488.85986	-1089.13306	42.52705	1437.5304	-903.45776	37.47132	1471.95166	NaN	NaN	NaN	NaN	NaN	NaN	NaN	NaN	NaN	NaN	NaN	NaN	NaN	NaN	NaN
94	0.93	-836.92273	1620.81799	1383.48145	-854.745	1616.40332	1515.1366	-970.05011	1593.46082	1367.86157	-982.09808	1588.42517	1498.26184	-1023.05957	1429.47852	1420.55627	-1074.94824	1117.59814	1425.76404	-906.11707	1345.58337	1419.60803	-870.52087	1178.77087	1415.13342	-1085.57727	1256.16858	1516.92773	-953.33624	1386.68359	1265.00842	-968.9848	1189.59766	1195.23401	-960.50708	1066.86902	1183.44226	-929.09003	939.99756	1183.44067	-905.42181	822.52924	1213.03101	-929.61615	827.43018	1162.8645	-909.95746	745.29419	1170.79114	-951.57745	1373.04395	1578.90002	-942.28253	1153.41479	1656.0741	-918.46759	1042.7406	1669.07837	-892.18158	908.49835	1671.09912	-859.29297	815.30249	1633.12793	-884.57721	808.7309	1680.37048	-857.78326	739.52393	1668.17407	-922.59436	941.88965	1312.0896	-916.85455	945.43677	1547.95276	-1082.09766	971.08057	1361.4718	-1075.89465	986.51434	1510.56616	-930.79163	643.32593	1261.21924	-888.48688	469.23163	1284.41394	-1023.32086	325.2449	1288.53369	-1155.23401	165.35228	1330.25537	-1208.77759	157.22234	1370.01917	-1055.33313	58.90873	1346.28699	-983.98315	654.19714	1583.22778	-975.39404	474.19995	1543.30481	-1022.24847	289.68463	1542.81116	-1046.31836	75.24501	1488.72388	-1089.79736	44.10848	1437.8114	-903.30408	37.38366	1471.96667	NaN	NaN	NaN	NaN	NaN	NaN	NaN	NaN	NaN	NaN	NaN	NaN	NaN	NaN	NaN
95	0.94	-829.34802	1620.56506	1383.07263	-846.66022	1616.47681	1514.79968	-962.39978	1593.50549	1367.96448	-974.12585	1588.64734	1498.39185	-1015.72632	1429.70496	1421.04358	-1067.11865	1117.58887	1426.55762	-898.43347	1345.56885	1419.84131	-862.88818	1178.73926	1415.42395	-1077.57385	1256.29468	1517.93823	-946.11493	1386.65234	1265.28381	-964.01886	1189.47681	1195.50146	-956.87781	1066.55432	1183.81116	-927.02972	939.41956	1183.44641	-903.80536	822.13385	1212.67102	-928.95654	826.90033	1163.17676	-909.99762	744.6897	1170.81799	-943.35016	1373.23218	1579.1167	-931.46985	1153.8584	1656.4303	-906.7392	1043.51709	1669.41797	-878.75861	909.6546	1671.46545	-844.63861	816.92377	1633.67407	-869.8382	810.06659	1680.85632	-842.54175	741.10645	1668.71936	-914.35059	942.42926	1312.30249	-909.07776	945.07587	1548.29297	-1074.13098	971.21509	1361.55273	-1068.07813	986.55273	1510.83337	-918.24243	644.63885	1262.2522	-872.35083	471.47549	1286.76514	-1002.76758	322.77887	1289.63159	-1129.29675	158.25212	1330.2323	-1183.24292	148.05399	1369.60767	-1024.98645	56.77837	1347.85852	-977.61865	653.68463	1583.04431	-970.85297	473.8298	1543.28027	-1019.60901	289.75647	1542.64319	-1046.01843	75.58326	1488.57825	-1089.01758	43.88816	1437.43811	-903.01935	37.05146	1471.67163	NaN	NaN	NaN	NaN	NaN	NaN	NaN	NaN	NaN	NaN	NaN	NaN	NaN	NaN	NaN
96	0.95	-821.6178	1620.3678	1382.6936	-838.65277	1616.52808	1514.50513	-954.83484	1593.39978	1368.01099	-966.15308	1588.86292	1498.45813	-1007.89368	1429.49878	1421.32275	-1059.27966	1117.54468	1427.33655	-890.84662	1345.45105	1419.94836	-855.29681	1178.57434	1415.68494	-1069.62683	1256.33081	1518.89697	-938.72498	1386.40454	1265.42761	-958.72467	1189.21716	1195.72144	-953.20502	1066.20386	1184.06653	-924.77179	938.81152	1183.50146	-902.67047	820.92413	1213.04626	-928.25507	826.32202	1163.47278	-909.90302	743.87982	1171.01929	-935.43378	1373.36035	1579.26013	-921.54712	1154.26294	1656.69141	-895.13251	1044.2738	1669.78052	-865.44733	910.7619	1671.81604	-830.25751	818.3894	1634.05359	-855.22949	811.31262	1681.2207	-827.19971	742.53802	1669.13013	-906.37561	942.86304	1312.8457	-901.37744	944.71069	1548.57678	-1066.32349	971.33307	1361.66333	-1060.2533	986.48254	1511.10144	-906.12402	645.96204	1263.04236	-857.0813	473.61813	1288.86389	-982.42828	320.24121	1290.79053	-1103.07288	151.0127	1330.63745	-1157.08386	138.54857	1369.53528	-994.22266	54.85038	1349.73328	-971.15405	653.03168	1582.48547	-966.35187	473.48712	1543.26672	-1016.92889	289.71524	1542.43787	-1045.72461	75.93608	1488.40137	-1089.04175	44.70499	1437.38062	-902.93762	37.25609	1471.98462	NaN	NaN	NaN	NaN	NaN	NaN	NaN	NaN	NaN	NaN	NaN	NaN	NaN	NaN	NaN
97	0.96	-813.90973	1620.14929	1382.30054	-830.67279	1616.53662	1514.09082	-947.19507	1593.25281	1367.99951	-958.21729	1588.91089	1498.47058	-999.88873	1429.31445	1421.69995	-1051.4823	1117.46472	1428.12402	-883.11145	1345.30969	1420.14172	-846.94818	1178.96912	1416.32361	-1061.63123	1256.30823	1519.83521	-931.36902	1386.10962	1265.62207	-953.49066	1189.28088	1196.04968	-949.52386	1065.75488	1184.21216	-922.45831	938.11084	1183.60388	-901.23926	820.02185	1213.09668	-927.2132	825.59021	1163.80786	-909.64514	742.97681	1171.34314	-927.62531	1373.43408	1579.39966	-911.95221	1154.66614	1656.94043	-883.72949	1044.97375	1670.15967	-852.2406	911.81671	1672.1333	-816.15009	819.69623	1634.16248	-840.82715	812.51672	1681.56653	-812.36346	743.94183	1669.38733	-898.38245	943.237	1313.3551	-893.58514	944.35504	1548.90076	-1058.34558	971.22736	1361.77612	-1052.42444	986.32306	1511.33435	-893.98663	647.15625	1263.89917	-842.52258	475.72769	1290.77991	-962.36224	317.58963	1291.9751	-1075.8136	142.86948	1331.53369	-1129.50122	128.08331	1369.73645	-963.00012	52.81366	1351.51099	-964.75562	652.39026	1581.99451	-961.80414	473.06839	1543.14111	-1014.20947	289.83389	1542.2876	-1045.30273	76.27042	1488.19556	-1088.95642	45.35021	1437.03174	-902.78595	37.20263	1472.00049	-894.26013	1690.21606	1429.5708	NaN	NaN	NaN	NaN	NaN	NaN	NaN	NaN	NaN	NaN	NaN	NaN
